<?xml version="1.0" encoding="UTF-8"?>
<svg xmlns="http://www.w3.org/2000/svg" xmlns:xlink="http://www.w3.org/1999/xlink" version="1.1" viewBox="0 0 370 278">
  <defs>
    <style>
      .cls-1 {
        fill: none;
      }

      .cls-2 {
        clip-path: url(#clippath-1);
      }

      .cls-3 {
        clip-path: url(#clippath-2);
      }

      .cls-4 {
        fill: #fff;
      }

      .cls-5 {
        clip-path: url(#clippath);
      }

      .cls-6 {
        fill: #7800ff;
      }
    </style>
    <clipPath id="clippath">
      <rect class="cls-1" x="304.3" y="211.7" width="17.4" height="17.4"/>
    </clipPath>
    <clipPath id="clippath-1">
      <rect class="cls-1" x="205.9" y="45.1" width="91.8" height="91.8"/>
    </clipPath>
    <clipPath id="clippath-2">
      <path class="cls-1" d="M251.8,45.1c-25.3,0-45.9,20.5-45.9,45.9s20.5,45.9,45.9,45.9,45.9-20.5,45.9-45.9-20.5-45.9-45.9-45.9Z"/>
    </clipPath>
  </defs>
  <!-- Generator: Adobe Illustrator 28.7.1, SVG Export Plug-In . SVG Version: 1.2.0 Build 142)  -->
  <g>
    <g id="Layer_1">
      <path d="M54.8,48.1h44.2c4.6,0,8.8.9,12.5,2.6,3.8,1.7,6.9,4,9.4,6.9,2.5,2.9,4.3,6,5.3,9.5,1.1,3.4,1.2,7,.5,10.6-.7,3.6-2.5,6.9-5.3,10,3.9,2.8,6.5,6.2,7.9,10.1,1.4,3.9,1.6,7.9.8,12.1-.8,4.1-2.7,8-5.5,11.5-2.8,3.5-6.5,6.4-11.1,8.5-4.6,2.2-9.8,3.3-15.8,3.3h-42.8V48.1Z"/>
      <path d="M178.3,90.6h23.5v42.5h-66V48.1h42.5v42.5Z"/>
      <path d="M251.6,45.2c6.2,0,12.1,1.2,17.5,3.5,5.5,2.3,10.3,5.6,14.4,9.8s7.4,9,9.8,14.4c2.3,5.5,3.5,11.3,3.5,17.5s-1.2,12.1-3.5,17.5c-2.3,5.5-5.6,10.3-9.8,14.4s-9,7.4-14.4,9.8-11.3,3.5-17.5,3.5-12.1-1.2-17.5-3.5-10.3-5.6-14.4-9.8-7.4-9-9.8-14.4c-2.3-5.5-3.5-11.3-3.5-17.5s1.2-12.1,3.5-17.5c2.3-5.5,5.6-10.3,9.8-14.4s9-7.4,14.4-9.8c5.5-2.3,11.3-3.5,17.5-3.5Z"/>
      <path d="M84.5,187.4h44.9c0,6.2-1.2,12.1-3.5,17.5-2.3,5.4-5.5,10.2-9.6,14.3-4.1,4.1-8.9,7.3-14.3,9.6s-11.2,3.5-17.5,3.5-12.1-1.2-17.5-3.5-10.2-5.5-14.3-9.6-7.3-8.9-9.6-14.3c-2.3-5.4-3.5-11.3-3.5-17.5s.9-10.9,2.8-15.8c1.9-5,4.6-9.4,8-13.4,3.4-4,7.4-7.3,12-9.9,4.6-2.6,9.6-4.4,14.9-5.3,5-.8,10.1-.7,15.2.2,5.1.9,9.9,2.7,14.4,5.3l-22.4,39Z"/>
      <path d="M177.4,187.4h44.9c0,6.2-1.2,12.1-3.5,17.5-2.3,5.4-5.5,10.2-9.6,14.3-4.1,4.1-8.9,7.3-14.3,9.6s-11.2,3.5-17.5,3.5-12.1-1.2-17.5-3.5-10.2-5.5-14.3-9.6-7.3-8.9-9.6-14.3c-2.3-5.4-3.5-11.3-3.5-17.5s.9-10.9,2.8-15.8c1.9-5,4.6-9.4,8-13.4,3.4-4,7.4-7.3,12-9.9,4.6-2.6,9.6-4.4,14.9-5.3,5-.8,10.1-.7,15.2.2,5.1.9,9.9,2.7,14.4,5.3l-22.4,39Z"/>
      <path d="M289.2,187.6v42.5h-42.5v-42.5l-23.8-42.5h90l-23.8,42.5Z"/>
      <g class="cls-5">
        <path d="M304.3,211.7h17.4v17.4h-17.4v-17.4Z"/>
      </g>
      <g class="cls-2">
        <g class="cls-3">
          <path class="cls-6" d="M205.9,45.1h91.8v91.8h-91.8V45.1Z"/>
        </g>
      </g>
      <path class="cls-4" d="M228.3,78.1c0,.1,0,.3,0,.7v.4h1.6v1.3h-1.6v6.4h-2v-6.4h-.8v-1.3h.8v-.3c0-.4,0-.7,0-.9.1-1.4,1.1-2.1,2.8-2.1s.6,0,.9.1v1.4c-.5,0-.9,0-1.2,0-.3.1-.5.4-.5.7Z"/>
      <path class="cls-4" d="M231.5,80.1c.7-.8,1.7-1.1,3-1.1s2.3.4,3,1.1c.7.8,1.1,1.7,1.1,3s-.4,2.2-1.1,3c-.7.8-1.7,1.1-3,1.1s-2.3-.4-3-1.1c-.7-.8-1.1-1.8-1.1-3s.4-2.2,1.1-3ZM233.1,85c.3.5.8.7,1.4.7s1.1-.2,1.4-.7c.3-.5.5-1.1.5-2s-.2-1.5-.5-2c-.3-.5-.8-.7-1.4-.7s-1.1.2-1.4.7c-.3.5-.5,1.1-.5,2s.2,1.5.5,2Z"/>
      <path class="cls-4" d="M243.8,78.9c.2,0,.4,0,.6,0v1.6c-.9,0-1.5.1-1.9.6-.4.4-.6,1.1-.6,2.2v3.6h-2v-7.8h2v1.4l.6-1.1c.4-.4.8-.5,1.3-.5Z"/>
      <path class="cls-4" d="M228.3,95.1c0,.1,0,.3,0,.7v.4h1.6v1.3h-1.6v6.4h-2v-6.4h-.8v-1.3h.8v-.3c0-.4,0-.7,0-.9.1-1.4,1.1-2.1,2.8-2.1s.6,0,.9.1v1.4c-.5,0-.9,0-1.2,0-.3.1-.5.4-.5.7Z"/>
      <path class="cls-4" d="M238.2,96.1v7.8h-2v-1.3l-.6,1c-.5.3-1.2.5-1.9.5s-1.4-.2-1.9-.6c-.5-.4-.8-.8-.9-1.4,0-.3,0-.8,0-1.4v-4.6h2v4.2c0,.4,0,.7,0,1.1.1.9.6,1.3,1.5,1.3s1-.2,1.3-.6c.3-.4.5-1.1.5-2v-4h2Z"/>
      <path class="cls-4" d="M247.3,98.1c0,.3,0,.8,0,1.4v4.4h-2v-4.1c0-.5,0-.8,0-1.1,0-.9-.6-1.4-1.5-1.4s-1,.3-1.3.8c-.3.5-.5,1.2-.5,2.3v3.6h-2v-7.8h2v1.3l.6-.9c.5-.4,1.1-.5,1.9-.5s1.5.2,2,.6c.5.4.8.9.8,1.6Z"/>
      <path class="cls-4" d="M251.9,95.9c.9,0,1.6.2,2.1.7.5.4.9,1,1,1.8h-2c-.1-.8-.5-1.1-1.2-1.1s-.5,0-.7.2c-.2.2-.3.4-.3.6s.1.5.4.7c.3.2.7.3,1.4.5.8.2,1.5.5,1.9.9.4.4.6.9.6,1.6s-.3,1.3-.9,1.7c-.6.4-1.4.6-2.3.6s-1.8-.2-2.4-.6c-.6-.4-1-1.1-1.1-1.9h2c0,.4.3.7.5.9.3.2.6.3,1,.3s.6,0,.8-.2c.2-.2.3-.4.3-.6s-.1-.5-.4-.7c-.3-.2-.8-.4-1.4-.5-.8-.2-1.4-.5-1.8-.8-.4-.4-.6-.9-.6-1.5s.3-1.3.8-1.8c.6-.4,1.3-.6,2.3-.6Z"/>
      <path class="cls-4" d="M256.6,93.5c.2-.2.5-.3.8-.3s.6.1.8.3c.2.2.3.4.3.8s-.1.6-.3.8c-.2.2-.5.3-.8.3s-.6,0-.8-.3c-.2-.2-.3-.5-.3-.8s.1-.6.3-.8ZM258.4,103.9h-2v-7.8h2v7.8Z"/>
      <path class="cls-4" d="M267.4,99.9c0,.3,0,.5,0,.7h-5.5c.1,1.4.7,2.2,1.8,2.2s.8-.1,1.1-.4c.3-.2.5-.6.5-1h2c-.2.9-.6,1.6-1.3,2-.7.5-1.5.7-2.4.7s-2-.3-2.8-1c-.7-.7-1-1.7-1-3s.4-2.2,1.1-3c.7-.8,1.7-1.2,2.9-1.2s2,.4,2.7,1.1c.7.8,1,1.7,1,2.8ZM263.6,97.4c-1,0-1.6.6-1.8,1.9h3.4c-.1-1.3-.7-1.9-1.6-1.9Z"/>
      <path class="cls-4" d="M271.6,95.9c.9,0,1.6.2,2.1.7.5.4.9,1,1,1.8h-2c-.1-.8-.5-1.1-1.2-1.1s-.5,0-.7.2c-.2.2-.3.4-.3.6s.1.5.4.7c.3.2.7.3,1.4.5.8.2,1.5.5,1.9.9.4.4.6.9.6,1.6s-.3,1.3-.9,1.7c-.6.4-1.4.6-2.3.6s-1.8-.2-2.4-.6c-.6-.4-1-1.1-1.1-1.9h2c0,.4.3.7.5.9.3.2.6.3,1,.3s.6,0,.8-.2c.2-.2.3-.4.3-.6s-.1-.5-.4-.7c-.3-.2-.8-.4-1.4-.5-.8-.2-1.4-.5-1.8-.8-.4-.4-.6-.9-.6-1.5s.3-1.3.8-1.8c.6-.4,1.3-.6,2.3-.6Z"/>
    </g>
  </g>
</svg>